Coordinates
version=1
nRows=10
nColumns=40
inDegrees=yes

Units are S.I. units (second, meters, Newtons, ...)
Angles are in degrees.

endheader
time	pelvis_tilt	pelvis_list	pelvis_rotation	pelvis_tx	pelvis_ty	pelvis_tz	hip_flexion_r	hip_adduction_r	hip_rotation_r	knee_angle_r	knee_angle_r_beta	ankle_angle_r	subtalar_angle_r	mtp_angle_r	hip_flexion_l	hip_adduction_l	hip_rotation_l	knee_angle_l	knee_angle_l_beta	ankle_angle_l	subtalar_angle_l	mtp_angle_l	lumbar_extension	lumbar_bending	lumbar_rotation	arm_flex_r	arm_add_r	arm_rot_r	elbow_flex_r	pro_sup_r	wrist_flex_r	wrist_dev_r	arm_flex_l	arm_add_l	arm_rot_l	elbow_flex_l	pro_sup_l	wrist_flex_l	wrist_dev_l
     24.14000000	     -2.71827102	     -4.99418827	     -3.05435033	      0.95970119	      0.92420040	      0.48844751	     19.59595135	      2.43415303	    -13.40748256	     22.19667208	     22.19667208	      6.64706330	     -5.65339142	     -1.43320020	      6.99470396	    -12.02786714	     -7.59676655	     44.64472226	     44.64472226	      9.67828690	    -15.77893739	     -9.72183592	     -8.23019310	      6.91861567	      1.31837461	     -3.21965367	    -11.32069255	    -13.08199642	     27.06149889	     46.94587103	      0.00000000	      0.00000000	     12.81081784	    -10.93099470	     -6.80964171	     60.07621346	     47.07179717	      0.00000000	      0.00000000
     24.15228571	     -2.89224042	     -4.99894592	     -2.66075781	      0.95959401	      0.92490550	      0.49088068	     18.99921836	      2.49851725	    -14.03686430	     21.75234175	     21.75234175	      7.06104741	     -5.06797986	     -1.55947143	      9.30583985	    -12.31063278	     -6.12478401	     48.43752010	     48.43752010	      7.66262814	    -17.15358393	     -8.47564028	     -7.90995747	      6.90537124	      0.79725228	     -1.72277935	    -11.25367179	    -12.61844766	     28.44626424	     46.85398028	      0.00000000	      0.00000000	     12.12954583	    -10.79730679	     -6.47572869	     56.46821390	     46.99266491	      0.00000000	      0.00000000
     24.16457143	     -2.77607812	     -4.99947598	     -2.39538914	      0.95927911	      0.92583046	      0.49324760	     18.19731850	      2.56897380	    -14.47131902	     21.48940882	     21.48940882	      7.52843743	     -4.51789547	     -1.67683309	     11.44957316	    -12.48781679	     -4.80613917	     52.43513363	     52.43513363	      7.83218681	    -17.14282047	     -2.50698878	     -8.01851791	      6.86770902	      2.05474102	     -1.67504978	    -11.79182250	    -10.25900638	     31.74540204	     46.50014317	      0.00000000	      0.00000000	     13.68824280	     -9.64445154	     -5.53588462	     50.08209920	     46.84601599	      0.00000000	      0.00000000
     24.17685714	     -2.76763522	     -5.01702431	     -2.08624495	      0.95876213	      0.92651083	      0.49547122	     17.50349682	      2.65791709	    -14.95547121	     21.16984103	     21.16984103	      7.90059553	     -4.01511601	     -1.88157350	     13.63671195	    -12.62317846	     -3.55081880	     55.88794346	     55.88794346	      7.40693911	    -17.43518876	      1.43637699	     -8.05842799	      6.80934630	      2.17552747	     -0.40693603	    -12.05044758	     -9.02261554	     33.82315524	     46.31559937	      0.00000000	      0.00000000	     13.39472506	     -9.29598882	     -4.88857159	     46.92457079	     46.74596286	      0.00000000	      0.00000000
     24.18914286	     -2.76235253	     -5.13918380	     -1.77187770	      0.95809008	      0.92705918	      0.49767128	     16.79711215	      2.91934871	    -15.28412964	     20.78625521	     20.78625521	      8.26069473	     -3.88674348	     -1.93660931	     15.67933328	    -12.91777036	     -2.52552711	     58.69808873	     58.69808873	      6.13399993	    -17.93371941	      2.14407978	     -8.16254343	      6.83661734	      2.17193660	      1.38221359	    -12.13781213	     -8.96138249	     34.88721814	     46.27896524	      0.00000000	      0.00000000	     12.37920633	     -9.04097612	     -4.64109493	     45.61566866	     46.69824190	      0.00000000	      0.00000000
     24.20142857	     -2.77654798	     -5.06299927	     -1.48800635	      0.95708926	      0.92769353	      0.49959740	     16.19021096	      2.92481951	    -15.61446370	     20.50085750	     20.50085750	      8.52074575	     -3.48882335	     -2.12305487	     17.84251874	    -12.75463204	     -1.41610241	     61.36300577	     61.36300577	      7.00156024	    -17.90582890	      7.55196252	     -8.18154683	      6.67887607	      2.51472912	      2.58625555	    -12.52547169	     -7.78393364	     37.25869752	     46.10108035	      0.00000000	      0.00000000	     12.89112939	     -8.48313730	     -3.99171384	     40.52651261	     46.58996875	      0.00000000	      0.00000000
     24.21371429	     -2.79035672	     -5.06478240	     -1.19419756	      0.95598873	      0.92827002	      0.50146120	     15.56671446	      3.04518704	    -15.86178124	     20.15755240	     20.15755240	      8.79862144	     -3.32863978	     -2.17581146	     19.81676847	    -12.74505487	     -0.57836331	     63.27752756	     63.27752756	      7.10690993	    -18.07285783	      9.73958582	     -8.26013661	      6.57721829	      2.65485105	      4.07002601	    -12.82880570	     -7.21728763	     39.42824491	     45.97699799	      0.00000000	      0.00000000	     12.50921789	     -8.14615119	     -3.56279371	     37.61411480	     46.50753952	      0.00000000	      0.00000000
     24.22600000	     -2.79152493	     -5.05583504	     -0.93045362	      0.95473392	      0.92892452	      0.50325742	     14.94768813	      3.16896875	    -16.01150155	     19.82346470	     19.82346470	      9.03132394	     -3.24896885	     -2.17092747	     21.60121637	    -12.75770036	      0.01476625	     64.48370299	     64.48370299	      6.79904041	    -18.34758641	      9.85500351	     -8.43081882	      6.45197816	      2.92294753	      5.97436650	    -13.02721993	     -7.27941823	     40.45717736	     45.95191554	      0.00000000	      0.00000000	     11.47472423	     -7.87692600	     -3.40386570	     36.63952303	     46.46854112	      0.00000000	      0.00000000
     24.23828571	     -2.85020291	     -5.01665449	     -0.60611907	      0.95329570	      0.92952264	      0.50484539	     14.34244196	      3.24509669	    -16.31681049	     19.37195188	     19.37195188	      9.27511494	     -2.99043768	     -2.21946626	     23.46608068	    -12.63148745	      0.60081888	     65.30487978	     65.30487978	      7.61308549	    -18.43079312	     12.17921059	     -8.41778325	      6.30460970	      2.86926532	      7.52284912	    -13.32670610	     -6.57304537	     42.96762954	     45.81713697	      0.00000000	      0.00000000	     11.56384752	     -7.58769568	     -2.83866917	     32.14257882	     46.37779790	      0.00000000	      0.00000000
     24.25057143	     -2.90131722	     -5.01182602	     -0.30579657	      0.95173221	      0.93021838	      0.50637973	     13.70783451	      3.39322245	    -16.50138490	     18.84795771	     18.84795771	      9.44547285	     -2.87318893	     -2.15311200	     25.11805368	    -12.59349275	      0.96195661	     65.36549035	     65.36549035	      7.84531115	    -18.59960914	     12.35691116	     -8.51158215	      6.19549466	      2.68690943	      9.60738728	    -13.35048209	     -6.67101832	     44.46702947	     45.77616003	      0.00000000	      0.00000000	     10.42043643	     -7.53010713	     -2.69222176	     30.83526185	     46.33613494	      0.00000000	      0.00000000
